<svg xmlns="http://www.w3.org/2000/svg" viewBox="0 0 229.53 71.86"><defs><style>.a{fill:#6a306d;}.b{fill:#19281f;}</style></defs><path class="a" d="M25.49,35.89q11,10.59,15.62,15.91,2.39,2.67,2.38,4.5t-2.88,4.32q-2.88,2.49-4.72,2.49t-4.43-3L15.62,42v14a21.69,21.69,0,0,1-.1,2.52,5.86,5.86,0,0,1-.69,1.87q-1,2-5.61,2-5,0-5.91-2.74A11.27,11.27,0,0,1,2.88,56V16A21.41,21.41,0,0,1,3,13.46a5.78,5.78,0,0,1,.68-1.9c.67-1.3,2.55-2,5.62-2q5,0,6,2.67A14.25,14.25,0,0,1,15.62,16V29.77q9.8-11,15.84-18.07,2.52-3,4.4-2.95c1.24,0,2.83.83,4.75,2.48s2.88,3.1,2.88,4.32-.72,2.68-2.16,4.36q-4.19,4.82-13,13.25Z" transform="translate(-2.88 -6.8)"/><path class="b" d="M70.63,28.48q.44-4,5.69-4a14.86,14.86,0,0,1,4.18.44,3,3,0,0,1,1.9,1.51,6.16,6.16,0,0,1,.65,1.91,21.21,21.21,0,0,1,.11,2.48V56a21.21,21.21,0,0,1-.11,2.48,6.42,6.42,0,0,1-.61,1.91c-.67,1.25-2.32,1.87-4.93,1.87s-4.37-.32-5.26-1a3.89,3.89,0,0,1-1.55-2.84Q68,62.24,61.81,62.24T50.26,56.56a19,19,0,0,1,0-26.39q5.37-5.66,11.77-5.65a11.17,11.17,0,0,1,4.47.86A10.22,10.22,0,0,1,69.34,27,9.87,9.87,0,0,1,70.63,28.48Zm-13.1,15a6,6,0,0,0,1.87,4.29,6.13,6.13,0,0,0,4.54,1.9,5.69,5.69,0,0,0,4.42-1.94,6.23,6.23,0,0,0,1.77-4.28,6.69,6.69,0,0,0-1.69-4.36,5.64,5.64,0,0,0-4.54-2,5.85,5.85,0,0,0-4.61,2A6.56,6.56,0,0,0,57.53,43.45Z" transform="translate(-2.88 -6.8)"/><path class="b" d="M110,24.44A15.22,15.22,0,0,1,122,30a19.77,19.77,0,0,1,4.79,13.43V56.05a21.41,21.41,0,0,1-.11,2.49,5.69,5.69,0,0,1-.61,1.83q-1,2-5.61,2-5.11,0-5.91-2.67a11.65,11.65,0,0,1-.43-3.67V43.31A5.79,5.79,0,0,0,107.89,37a6.32,6.32,0,0,0-4.61,1.73,6.09,6.09,0,0,0-1.76,4.54V56.05a21.41,21.41,0,0,1-.11,2.49,5.12,5.12,0,0,1-.68,1.83q-.95,2-5.55,2t-5.54-2A6.42,6.42,0,0,1,89,58.46,21.21,21.21,0,0,1,88.92,56V30.49A20.44,20.44,0,0,1,89,28.08a5.23,5.23,0,0,1,.68-1.84q1-1.8,5.55-1.8c2.92,0,4.72.56,5.4,1.66a5.83,5.83,0,0,1,.72,2.95,7.6,7.6,0,0,1,1.29-1.44,12.26,12.26,0,0,1,2-1.51A9.46,9.46,0,0,1,110,24.44Z" transform="translate(-2.88 -6.8)"/><path class="b" d="M137.52,29.2a19.77,19.77,0,0,1,27.57,0,18.58,18.58,0,0,1,6,14.22A18.68,18.68,0,0,1,168,54a19.33,19.33,0,0,1-7.52,6.84,20.34,20.34,0,0,1-9.18,2.2,19.64,19.64,0,0,1-9.22-2.34,20.48,20.48,0,0,1-7.52-6.92,18.13,18.13,0,0,1-3.06-10.33A18.6,18.6,0,0,1,137.52,29.2Zm9,19.4a7.62,7.62,0,0,0,4.68,1.76,7.85,7.85,0,0,0,4.75-1.8,6.24,6.24,0,0,0,2.38-5.32A6.23,6.23,0,0,0,156.09,38a7.71,7.71,0,0,0-4.82-1.73,7.51,7.51,0,0,0-4.82,1.8,6.4,6.4,0,0,0-2.24,5.29A6.21,6.21,0,0,0,146.52,48.6Z" transform="translate(-2.88 -6.8)"/><path class="b" d="M178.45,24.66a11.86,11.86,0,0,1,3.56-.43,11.47,11.47,0,0,1,3.53.43,3,3,0,0,1,1.84,1.48A6,6,0,0,1,188,28a21.71,21.71,0,0,1,.1,2.48V60.16q0,8.41-5.83,13.46a19.18,19.18,0,0,1-12.81,5,20.27,20.27,0,0,1-2.45-.11,5.71,5.71,0,0,1-1.8-.61q-1.87-1-1.87-5.26t1.54-5.32a7.21,7.21,0,0,1,4.18-1.08,7.77,7.77,0,0,0,4.64-1.44q2-1.44,2-5.19V30a7.79,7.79,0,0,1,.68-3.71A3.51,3.51,0,0,1,178.45,24.66Zm7-5.87a12.64,12.64,0,0,1-3.56.4,11.83,11.83,0,0,1-3.53-.43,3,3,0,0,1-1.83-1.48,5.81,5.81,0,0,1-.65-1.87,21.28,21.28,0,0,1-.11-2.49,20.07,20.07,0,0,1,.11-2.44,5.71,5.71,0,0,1,.61-1.8q1-1.87,5.54-1.88,4.32,0,5.4,1.88A5.3,5.3,0,0,1,188,10.4a20.08,20.08,0,0,1,.1,2.38v.43a20,20,0,0,1-.1,2.38,5.18,5.18,0,0,1-.69,1.8A3.07,3.07,0,0,1,185.43,18.79Z" transform="translate(-2.88 -6.8)"/><path class="b" d="M198.86,29.2a19.78,19.78,0,0,1,27.58,0,18.61,18.61,0,0,1,6,14.22A18.75,18.75,0,0,1,229.32,54a19.35,19.35,0,0,1-7.53,6.84,20.34,20.34,0,0,1-9.18,2.2,19.6,19.6,0,0,1-9.21-2.34,20.43,20.43,0,0,1-7.53-6.92,18.13,18.13,0,0,1-3.06-10.33A18.6,18.6,0,0,1,198.86,29.2Zm9,19.4a7.64,7.64,0,0,0,4.68,1.76,7.82,7.82,0,0,0,4.75-1.8,6.24,6.24,0,0,0,2.38-5.32A6.25,6.25,0,0,0,217.44,38a7.75,7.75,0,0,0-4.83-1.73,7.54,7.54,0,0,0-4.82,1.8,6.4,6.4,0,0,0-2.23,5.29A6.23,6.23,0,0,0,207.86,48.6Z" transform="translate(-2.88 -6.8)"/></svg>